<?xml version="1.0" encoding="UTF-8" standalone="no"?>
<!DOCTYPE svg PUBLIC "-//W3C//DTD SVG 1.1//EN"
 "http://www.w3.org/Graphics/SVG/1.1/DTD/svg11.dtd">
<!-- Generated by graphviz version 2.43.0 (0)
 -->
<!-- Title: %3 Pages: 1 -->
<svg width="287pt" height="44pt"
 viewBox="0.00 0.00 286.54 44.00" xmlns="http://www.w3.org/2000/svg" xmlns:xlink="http://www.w3.org/1999/xlink">
<g id="graph0" class="graph" transform="scale(1 1) rotate(0) translate(4 40)">
<title>%3</title>
<polygon fill="white" stroke="transparent" points="-4,4 -4,-40 282.54,-40 282.54,4 -4,4"/>
<!-- X -->
<g id="node1" class="node">
<title>X</title>
<ellipse fill="none" stroke="black" cx="27" cy="-18" rx="27" ry="18"/>
<text text-anchor="middle" x="27" y="-13.8" font-family="Times,serif" font-size="14.00">X</text>
</g>
<!-- f -->
<g id="node2" class="node">
<title>f</title>
<ellipse fill="none" stroke="black" cx="160.54" cy="-18" rx="27" ry="18"/>
<text text-anchor="middle" x="160.54" y="-13.8" font-family="Times,serif" font-size="14.00">f</text>
</g>
<!-- X&#45;&gt;f -->
<g id="edge1" class="edge">
<title>X&#45;&gt;f</title>
<path fill="none" stroke="black" d="M54.3,-18C74.02,-18 101.25,-18 123.07,-18"/>
<polygon fill="black" stroke="black" points="123.29,-21.5 133.29,-18 123.29,-14.5 123.29,-21.5"/>
<text text-anchor="middle" x="93.77" y="-20.8" font-family="Times,serif" font-size="14.00">k(X, X)</text>
</g>
<!-- y -->
<g id="node3" class="node">
<title>y</title>
<ellipse fill="none" stroke="black" cx="251.54" cy="-18" rx="27" ry="18"/>
<text text-anchor="middle" x="251.54" y="-13.8" font-family="Times,serif" font-size="14.00">y</text>
</g>
<!-- f&#45;&gt;y -->
<g id="edge2" class="edge">
<title>f&#45;&gt;y</title>
<path fill="none" stroke="black" d="M187.77,-18C196.1,-18 205.46,-18 214.36,-18"/>
<polygon fill="black" stroke="black" points="214.51,-21.5 224.51,-18 214.51,-14.5 214.51,-21.5"/>
</g>
</g>
</svg>
