<?xml version="1.0" encoding="UTF-8" standalone="no"?>
<!DOCTYPE svg PUBLIC "-//W3C//DTD SVG 1.1//EN"
 "http://www.w3.org/Graphics/SVG/1.1/DTD/svg11.dtd">
<!-- Generated by graphviz version 2.43.0 (0)
 -->
<!-- Title: %3 Pages: 1 -->
<svg width="371pt" height="98pt"
 viewBox="0.00 0.00 370.51 98.00" xmlns="http://www.w3.org/2000/svg" xmlns:xlink="http://www.w3.org/1999/xlink">
<g id="graph0" class="graph" transform="scale(1 1) rotate(0) translate(4 94)">
<title>%3</title>
<polygon fill="white" stroke="transparent" points="-4,4 -4,-94 366.51,-94 366.51,4 -4,4"/>
<!-- mu_latent -->
<g id="node1" class="node">
<title>mu_latent</title>
<ellipse fill="none" stroke="black" cx="45.47" cy="-72" rx="45.44" ry="18"/>
<text text-anchor="middle" x="45.47" y="-67.8" font-family="Times,serif" font-size="14.00">mu_latent</text>
</g>
<!-- loc -->
<g id="node2" class="node">
<title>loc</title>
<ellipse fill="none" stroke="black" cx="153.94" cy="-72" rx="27" ry="18"/>
<text text-anchor="middle" x="153.94" y="-67.8" font-family="Times,serif" font-size="14.00">loc</text>
</g>
<!-- mu_latent&#45;&gt;loc -->
<g id="edge1" class="edge">
<title>mu_latent&#45;&gt;loc</title>
<path fill="none" stroke="black" d="M91.01,-72C99.58,-72 108.47,-72 116.74,-72"/>
<polygon fill="black" stroke="black" points="116.82,-75.5 126.82,-72 116.82,-68.5 116.82,-75.5"/>
</g>
<!-- fn -->
<g id="node3" class="node">
<title>fn</title>
<ellipse fill="none" stroke="black" cx="244.72" cy="-72" rx="27" ry="18"/>
<text text-anchor="middle" x="244.72" y="-67.8" font-family="Times,serif" font-size="14.00">fn</text>
</g>
<!-- loc&#45;&gt;fn -->
<g id="edge2" class="edge">
<title>loc&#45;&gt;fn</title>
<path fill="none" stroke="black" d="M181.1,-72C189.34,-72 198.58,-72 207.39,-72"/>
<polygon fill="black" stroke="black" points="207.45,-75.5 217.45,-72 207.45,-68.5 207.45,-75.5"/>
</g>
<!-- y -->
<g id="node5" class="node">
<title>y</title>
<ellipse fill="none" stroke="black" cx="335.51" cy="-45" rx="27" ry="18"/>
<text text-anchor="middle" x="335.51" y="-40.8" font-family="Times,serif" font-size="14.00">y</text>
</g>
<!-- fn&#45;&gt;y -->
<g id="edge4" class="edge">
<title>fn&#45;&gt;y</title>
<path fill="none" stroke="black" d="M269.52,-64.76C279.17,-61.83 290.49,-58.39 300.96,-55.2"/>
<polygon fill="black" stroke="black" points="302.1,-58.51 310.65,-52.26 300.06,-51.82 302.1,-58.51"/>
</g>
<!-- scale -->
<g id="node4" class="node">
<title>scale</title>
<ellipse fill="none" stroke="black" cx="244.72" cy="-18" rx="27.56" ry="18"/>
<text text-anchor="middle" x="244.72" y="-13.8" font-family="Times,serif" font-size="14.00">scale</text>
</g>
<!-- scale&#45;&gt;y -->
<g id="edge3" class="edge">
<title>scale&#45;&gt;y</title>
<path fill="none" stroke="black" d="M270.46,-25.52C279.84,-28.38 290.7,-31.68 300.78,-34.74"/>
<polygon fill="black" stroke="black" points="299.93,-38.14 310.52,-37.71 301.97,-31.45 299.93,-38.14"/>
</g>
</g>
</svg>
