<?xml version="1.0" encoding="UTF-8" standalone="no"?>
<!DOCTYPE svg PUBLIC "-//W3C//DTD SVG 1.1//EN"
 "http://www.w3.org/Graphics/SVG/1.1/DTD/svg11.dtd">
<!-- Generated by graphviz version 2.43.0 (0)
 -->
<!-- Title: %3 Pages: 1 -->
<svg width="244pt" height="98pt"
 viewBox="0.00 0.00 243.56 98.00" xmlns="http://www.w3.org/2000/svg" xmlns:xlink="http://www.w3.org/1999/xlink">
<g id="graph0" class="graph" transform="scale(1 1) rotate(0) translate(4 94)">
<title>%3</title>
<polygon fill="white" stroke="transparent" points="-4,4 -4,-94 239.56,-94 239.56,4 -4,4"/>
<!-- loc -->
<g id="node1" class="node">
<title>loc</title>
<ellipse fill="none" stroke="black" cx="27.78" cy="-72" rx="27" ry="18"/>
<text text-anchor="middle" x="27.78" y="-67.8" font-family="Times,serif" font-size="14.00">loc</text>
</g>
<!-- z1 -->
<g id="node3" class="node">
<title>z1</title>
<ellipse fill="none" stroke="black" cx="118.56" cy="-72" rx="27" ry="18"/>
<text text-anchor="middle" x="118.56" y="-67.8" font-family="Times,serif" font-size="14.00">z1</text>
</g>
<!-- loc&#45;&gt;z1 -->
<g id="edge1" class="edge">
<title>loc&#45;&gt;z1</title>
<path fill="none" stroke="black" d="M54.94,-72C63.17,-72 72.42,-72 81.23,-72"/>
<polygon fill="black" stroke="black" points="81.28,-75.5 91.28,-72 81.28,-68.5 81.28,-75.5"/>
</g>
<!-- z2 -->
<g id="node4" class="node">
<title>z2</title>
<ellipse fill="none" stroke="black" cx="118.56" cy="-18" rx="27" ry="18"/>
<text text-anchor="middle" x="118.56" y="-13.8" font-family="Times,serif" font-size="14.00">z2</text>
</g>
<!-- loc&#45;&gt;z2 -->
<g id="edge2" class="edge">
<title>loc&#45;&gt;z2</title>
<path fill="none" stroke="black" d="M48.48,-60.02C60.44,-52.74 75.89,-43.34 89.15,-35.28"/>
<polygon fill="black" stroke="black" points="91.19,-38.14 97.91,-29.95 87.55,-32.16 91.19,-38.14"/>
</g>
<!-- scale -->
<g id="node2" class="node">
<title>scale</title>
<ellipse fill="none" stroke="black" cx="27.78" cy="-18" rx="27.56" ry="18"/>
<text text-anchor="middle" x="27.78" y="-13.8" font-family="Times,serif" font-size="14.00">scale</text>
</g>
<!-- scale&#45;&gt;z1 -->
<g id="edge3" class="edge">
<title>scale&#45;&gt;z1</title>
<path fill="none" stroke="black" d="M48.93,-30.25C60.9,-37.53 76.26,-46.88 89.42,-54.88"/>
<polygon fill="black" stroke="black" points="87.74,-57.96 98.11,-60.17 91.38,-51.98 87.74,-57.96"/>
</g>
<!-- scale&#45;&gt;z2 -->
<g id="edge4" class="edge">
<title>scale&#45;&gt;z2</title>
<path fill="none" stroke="black" d="M55.9,-18C63.95,-18 72.89,-18 81.42,-18"/>
<polygon fill="black" stroke="black" points="81.52,-21.5 91.52,-18 81.52,-14.5 81.52,-21.5"/>
</g>
<!-- y -->
<g id="node5" class="node">
<title>y</title>
<ellipse fill="none" stroke="black" cx="208.56" cy="-45" rx="27" ry="18"/>
<text text-anchor="middle" x="208.56" y="-40.8" font-family="Times,serif" font-size="14.00">y</text>
</g>
<!-- z1&#45;&gt;y -->
<g id="edge5" class="edge">
<title>z1&#45;&gt;y</title>
<path fill="none" stroke="black" d="M143.61,-64.62C153,-61.74 163.92,-58.39 174.06,-55.28"/>
<polygon fill="black" stroke="black" points="175.32,-58.55 183.85,-52.28 173.26,-51.86 175.32,-58.55"/>
</g>
<!-- z2&#45;&gt;y -->
<g id="edge6" class="edge">
<title>z2&#45;&gt;y</title>
<path fill="none" stroke="black" d="M143.61,-25.38C153,-28.26 163.92,-31.61 174.06,-34.72"/>
<polygon fill="black" stroke="black" points="173.26,-38.14 183.85,-37.72 175.32,-31.45 173.26,-38.14"/>
</g>
</g>
</svg>
