<?xml version="1.0" encoding="UTF-8" standalone="no"?>
<!DOCTYPE svg PUBLIC "-//W3C//DTD SVG 1.1//EN"
 "http://www.w3.org/Graphics/SVG/1.1/DTD/svg11.dtd">
<!-- Generated by graphviz version 2.43.0 (0)
 -->
<!-- Title: %3 Pages: 1 -->
<svg width="254pt" height="44pt"
 viewBox="0.00 0.00 253.66 44.00" xmlns="http://www.w3.org/2000/svg" xmlns:xlink="http://www.w3.org/1999/xlink">
<g id="graph0" class="graph" transform="scale(1 1) rotate(0) translate(4 40)">
<title>%3</title>
<polygon fill="white" stroke="transparent" points="-4,4 -4,-40 249.66,-40 249.66,4 -4,4"/>
<!-- E -->
<g id="node1" class="node">
<title>E</title>
<ellipse fill="none" stroke="black" cx="27" cy="-18" rx="27" ry="18"/>
<text text-anchor="middle" x="27" y="-13.8" font-family="Times,serif" font-size="14.00">E</text>
</g>
<!-- Z -->
<g id="node2" class="node">
<title>Z</title>
<ellipse fill="none" stroke="black" cx="124" cy="-18" rx="27" ry="18"/>
<text text-anchor="middle" x="124" y="-13.8" font-family="Times,serif" font-size="14.00">Z</text>
</g>
<!-- E&#45;&gt;Z -->
<g id="edge1" class="edge">
<title>E&#45;&gt;Z</title>
<path fill="none" stroke="black" d="M54.21,-18C64.28,-18 75.96,-18 86.81,-18"/>
<polygon fill="black" stroke="black" points="86.87,-21.5 96.87,-18 86.87,-14.5 86.87,-21.5"/>
<text text-anchor="middle" x="75.5" y="-20.8" font-family="Times,serif" font-size="14.00">g</text>
</g>
<!-- Y -->
<g id="node3" class="node">
<title>Y</title>
<ellipse fill="none" stroke="black" cx="218.66" cy="-18" rx="27" ry="18"/>
<text text-anchor="middle" x="218.66" y="-13.8" font-family="Times,serif" font-size="14.00">Y</text>
</g>
<!-- Z&#45;&gt;Y -->
<g id="edge2" class="edge">
<title>Z&#45;&gt;Y</title>
<path fill="none" stroke="black" d="M151.31,-18C160.68,-18 171.4,-18 181.46,-18"/>
<polygon fill="black" stroke="black" points="181.61,-21.5 191.61,-18 181.61,-14.5 181.61,-21.5"/>
<text text-anchor="middle" x="171.33" y="-20.8" font-family="Times,serif" font-size="14.00">f</text>
</g>
</g>
</svg>
