<?xml version="1.0" encoding="UTF-8" standalone="no"?>
<!DOCTYPE svg PUBLIC "-//W3C//DTD SVG 1.1//EN"
 "http://www.w3.org/Graphics/SVG/1.1/DTD/svg11.dtd">
<!-- Generated by graphviz version 2.43.0 (0)
 -->
<!-- Title: G Pages: 1 -->
<svg width="324pt" height="192pt"
 viewBox="0.00 0.00 324.32 192.00" xmlns="http://www.w3.org/2000/svg" xmlns:xlink="http://www.w3.org/1999/xlink">
<g id="graph0" class="graph" transform="scale(1 1) rotate(0) translate(4 188)">
<title>G</title>
<polygon fill="white" stroke="transparent" points="-4,4 -4,-188 320.32,-188 320.32,4 -4,4"/>
<text text-anchor="middle" x="158.16" y="-6.8" font-family="Times,serif" font-size="14.00">Figure 1: the class of deep models we&#39;re interested in.</text>
<g id="clust1" class="cluster">
<title>cluster_0</title>
<polygon fill="none" stroke="black" points="95.02,-30 95.02,-176 165.02,-176 165.02,-30 95.02,-30"/>
<text text-anchor="middle" x="130.02" y="-160.8" font-family="Times,serif" font-size="14.00">#N</text>
</g>
<!-- z -->
<g id="node1" class="node">
<title>z</title>
<ellipse fill="none" stroke="black" cx="130.02" cy="-128" rx="27" ry="18"/>
<text text-anchor="middle" x="130.02" y="-123.8" font-family="Times,serif" font-size="14.00">z</text>
</g>
<!-- x -->
<g id="node2" class="node">
<title>x</title>
<ellipse fill="none" stroke="black" cx="130.02" cy="-56" rx="27" ry="18"/>
<text text-anchor="middle" x="130.02" y="-51.8" font-family="Times,serif" font-size="14.00">x</text>
</g>
<!-- z&#45;&gt;x -->
<g id="edge1" class="edge">
<title>z&#45;&gt;x</title>
<path fill="none" stroke="black" d="M130.02,-109.7C130.02,-101.98 130.02,-92.71 130.02,-84.11"/>
<polygon fill="black" stroke="black" points="133.52,-84.1 130.02,-74.1 126.52,-84.1 133.52,-84.1"/>
</g>
<!-- theta -->
<g id="node3" class="node">
<title>theta</title>
<ellipse fill="none" stroke="black" cx="202.02" cy="-128" rx="27.09" ry="18"/>
<text text-anchor="middle" x="202.02" y="-123.8" font-family="Times,serif" font-size="14.00">theta</text>
</g>
<!-- theta&#45;&gt;x -->
<g id="edge2" class="edge">
<title>theta&#45;&gt;x</title>
<path fill="none" stroke="black" d="M187.1,-112.5C177.06,-102.73 163.64,-89.69 152.34,-78.7"/>
<polygon fill="black" stroke="black" points="154.52,-75.95 144.91,-71.49 149.64,-80.97 154.52,-75.95"/>
</g>
</g>
</svg>
